<svg viewBox="0 0 526 526" fill="currentColor" xmlns="http://www.w3.org/2000/svg">
    <path
        d="M461.362 325.081C461.152 325.29 461.257 325.604 461.466 325.814L475.282 334.919C475.386 335.024 475.491 335.024 475.596 335.024C475.805 335.024 475.91 334.919 476.014 334.814C476.224 334.605 476.119 334.291 475.91 334.082L462.094 324.976C461.78 324.767 461.466 324.872 461.362 325.081Z"
        fill="currentColor" />
    <path
        d="M485.957 245.747C487.109 235.909 484.911 226.28 480.62 223.14C478.84 221.884 476.852 221.779 474.968 222.826L474.654 223.14L468.269 212.883L468.165 212.778L467.327 204.301C467.118 202.312 465.548 200.847 463.56 200.847H429.021C427.346 166.308 414.368 121.513 382.97 121.408H382.865C374.701 121.408 367.27 124.653 360.781 131.142C347.698 144.225 338.802 171.018 337.442 200.742H315.776V198.126C315.776 196.556 314.521 195.3 312.951 195.3H308.973C307.404 195.3 306.148 196.556 306.148 198.126V200.742H302.38C300.391 200.742 298.821 202.207 298.612 204.196L297.775 212.988L291.6 222.931C291.495 222.826 291.286 222.617 291.076 222.617C290.239 222.407 288.774 222.303 287.308 223.454C286.89 223.768 286.576 224.082 286.157 224.605C277.261 234.548 279.354 258.725 285.32 278.192H249.211C249.316 275.994 249.421 273.378 249.63 270.552C250.258 259.772 250.991 246.375 249.735 238.839C247.955 228.268 240.42 216.337 235.815 210.999C231.733 206.289 226.081 199.696 224.197 197.498C230.686 193.311 234.245 187.45 234.768 180.124V179.496C235.082 176.356 234.349 172.065 231.837 169.343C230.267 167.564 228.279 166.727 225.872 166.727H184.425C184.111 154.691 177.832 142.655 164.226 142.655C159.725 142.655 155.643 144.434 152.294 147.364L152.085 147.26C152.085 147.364 151.98 147.469 151.98 147.678C147.27 152.074 144.235 158.982 144.026 166.832H107.499C105.091 166.832 102.998 167.669 101.533 169.448C99.1257 172.169 98.2884 176.461 98.6024 179.6V180.228C99.1257 187.555 102.684 193.416 109.173 197.602C107.185 199.905 101.533 206.394 97.5558 211.104C91.904 217.697 85.101 229.21 83.6357 238.944C81.5424 252.445 82.7984 263.016 83.845 272.436C84.787 280.599 85.6243 287.716 84.159 295.043C83.3217 296.822 82.3797 298.811 81.6471 300.904C78.2979 309.696 77.042 320.685 77.8793 325.5C78.6119 329.581 82.3797 332.512 87.1942 334.186H66.6804C66.0524 334.186 65.6338 334.605 65.6338 335.233V406.927C65.6338 407.555 66.0524 407.973 66.6804 407.973H129.164C129.373 408.392 129.582 408.811 129.687 409.229C130.838 411.741 131.99 414.462 133.35 417.812C133.455 418.021 133.56 418.335 133.664 418.544C136.071 423.987 141.514 427.755 147.794 427.755H327.08C333.36 427.755 338.802 423.987 341.209 418.544V418.44L341.523 417.812C342.884 414.462 344.14 411.637 345.187 409.125C345.396 408.706 345.605 408.287 345.71 407.869H463.56C464.502 407.869 465.339 407.345 465.758 406.508C466.176 405.671 466.071 404.729 465.548 403.996L456.757 392.693C453.617 388.716 449.012 386.413 443.883 386.413H388.412V354.491C388.412 354.177 388.307 353.968 388.098 353.758C394.692 353.34 402.018 352.084 410.077 349.572C418.241 347.06 425.463 343.606 431.952 339.629H474.026C475.805 339.629 477.584 338.896 478.736 337.536C479.887 336.175 480.515 334.396 480.306 332.617L475.91 288.24C475.91 288.135 475.805 287.926 475.805 287.821C481.875 274.006 485.539 259.353 485.957 245.433C486.062 245.852 486.062 245.747 485.957 245.747ZM476.119 224.605C477.27 223.977 478.422 223.977 479.468 224.814C481.457 226.28 483.131 230.048 483.864 234.967C482.294 233.292 479.887 232.873 477.898 232.559L476.328 232.245C474.863 231.931 474.026 231.199 473.712 230.048C473.398 229.001 473.712 227.745 474.444 226.594L475.491 228.268C475.7 228.582 476.014 228.792 476.328 228.792C476.538 228.792 476.747 228.792 476.852 228.582C477.375 228.268 477.48 227.64 477.166 227.117L475.7 224.814C475.91 224.71 476.014 224.71 476.119 224.605ZM473.189 224.605C471.619 226.384 471.095 228.582 471.619 230.571C472.142 232.455 473.607 233.711 475.805 234.234C476.328 234.339 476.956 234.443 477.48 234.548C480.724 235.176 482.817 235.699 483.236 238.525C483.341 239.049 483.759 239.362 484.178 239.362C484.283 242.502 483.969 246.061 483.236 249.619C481.247 258.83 478.422 267.726 474.654 276.308L468.688 217.593L473.189 224.605ZM420.753 216.755H429.44L432.684 245.642C432.789 246.166 432.58 246.584 432.266 246.898C431.952 247.212 431.533 247.422 431.01 247.422H419.078C418.555 247.422 418.136 247.212 417.822 246.898C417.508 246.584 417.404 246.061 417.404 245.642L420.753 216.755ZM431.428 216.337L431.324 215.604C431.219 215.081 430.8 214.662 430.277 214.662H419.706C419.183 214.662 418.764 215.081 418.66 215.604L418.555 216.337V208.278H420.962V208.906C420.962 210.266 422.113 211.418 423.474 211.418H426.823C428.184 211.418 429.335 210.266 429.335 208.906V208.278H431.428V216.337ZM379.934 200.951V146.318C380.981 146.632 382.028 146.841 383.179 146.841C384.33 146.841 385.377 146.632 386.424 146.318V200.951H379.934ZM345.815 200.951C347.071 173.111 355.025 148.516 366.642 136.794C369.364 134.072 372.294 132.084 375.434 130.828C374.073 132.502 373.236 134.596 373.236 137.003C373.236 140.561 375.12 143.597 377.946 145.376C377.946 145.48 377.841 145.585 377.841 145.794V200.951H345.815ZM337.232 216.86H345.919L349.164 245.747C349.268 246.27 349.059 246.689 348.745 247.003C348.431 247.317 348.012 247.526 347.489 247.526H335.558C335.034 247.526 334.616 247.317 334.302 247.003C333.988 246.689 333.883 246.166 333.883 245.747L337.232 216.86ZM347.908 216.441L347.803 215.709C347.698 215.186 347.28 214.767 346.757 214.767H336.186C335.662 214.767 335.244 215.186 335.139 215.709L335.034 216.441V208.382H337.232V208.906C337.232 210.266 338.384 211.418 339.744 211.418H342.884C344.245 211.418 345.396 210.266 345.396 208.906V208.278H347.803V216.441H347.908ZM383.074 129.363C383.702 129.363 384.33 129.363 384.854 129.467C388.307 130.304 390.924 133.34 390.924 137.003C390.924 141.294 387.47 144.748 383.179 144.748C378.888 144.748 375.434 141.294 375.434 137.003C375.434 133.34 377.946 130.304 381.4 129.467C381.923 129.363 382.446 129.363 383.074 129.363ZM388.307 145.376C391.133 143.597 392.913 140.561 392.913 137.003C392.913 134.596 392.075 132.502 390.715 130.723C408.926 137.631 419.287 169.134 420.753 200.951H388.307V145.794C388.412 145.585 388.412 145.48 388.307 145.376ZM362.351 132.816C368.422 126.746 375.434 123.606 382.97 123.606H383.074C415.52 123.711 427.242 174.681 427.242 208.906C427.242 209.115 427.032 209.324 426.823 209.324H423.474C423.265 209.324 423.055 209.115 423.055 208.906C423.055 206.708 423.055 204.615 422.951 202.417C423.055 202.312 423.055 202.103 423.055 201.893C423.055 201.684 422.951 201.475 422.846 201.37C421.276 165.262 408.193 129.363 385.063 127.269C384.435 127.165 383.702 127.06 382.97 127.06C382.237 127.06 381.504 127.165 380.876 127.269C375.12 127.793 369.782 130.514 364.968 135.224C351.78 148.306 343.303 177.193 343.303 208.801C343.303 209.01 343.093 209.22 342.884 209.22H339.744C339.535 209.22 339.326 209.01 339.326 208.801C339.43 176.565 348.431 146.736 362.351 132.816ZM313.893 217.488H308.346L310.125 203.359H312.009L313.893 217.488ZM308.241 200.742V198.335C308.241 197.916 308.555 197.602 308.973 197.602H312.951C313.369 197.602 313.683 197.916 313.683 198.335V200.951H308.031C308.241 200.847 308.241 200.847 308.241 200.742ZM300.81 204.615C300.914 203.777 301.647 203.045 302.484 203.045H308.031L306.043 218.43C306.043 218.744 306.148 219.058 306.252 219.267C306.462 219.477 306.776 219.581 307.09 219.581H315.044C315.358 219.581 315.672 219.477 315.881 219.267C316.09 219.058 316.195 218.744 316.091 218.43L314.102 203.045H337.442C337.442 204.091 337.337 205.138 337.337 206.289H334.092C333.464 206.289 333.046 206.708 333.046 207.336V219.686C333.046 220.314 333.464 220.733 334.092 220.733C334.302 220.733 334.511 220.628 334.72 220.523L331.895 245.538C331.79 246.584 332.104 247.631 332.836 248.468C333.569 249.305 334.511 249.724 335.662 249.724H347.594C348.64 249.724 349.687 249.305 350.42 248.468C351.152 247.631 351.466 246.584 351.362 245.538L348.536 220.523C348.745 220.628 348.85 220.733 349.164 220.733C349.792 220.733 350.21 220.314 350.21 219.686V207.336C350.21 206.708 349.792 206.289 349.164 206.289H345.71C345.71 205.243 345.71 204.091 345.815 203.045H421.067C421.067 204.091 421.171 205.138 421.171 206.185H417.718C417.09 206.185 416.671 206.603 416.671 207.231V219.581C416.671 220.209 417.09 220.628 417.718 220.628C417.927 220.628 418.136 220.523 418.345 220.419L415.52 245.433C415.415 246.48 415.729 247.526 416.462 248.363C417.194 249.201 418.136 249.619 419.287 249.619H431.219C432.266 249.619 433.312 249.201 434.045 248.363C434.777 247.526 435.091 246.48 434.987 245.433L432.161 220.419C432.37 220.523 432.475 220.628 432.789 220.628C433.417 220.628 433.836 220.209 433.836 219.581V207.231C433.836 206.603 433.417 206.185 432.789 206.185H429.649C429.649 205.138 429.649 204.091 429.544 202.94H463.978C464.816 202.94 465.548 203.568 465.653 204.51L473.293 279.971C461.048 305.823 441.267 327.069 418.345 337.85H348.954C348.954 337.431 348.85 336.908 348.85 336.489C348.326 331.465 347.908 326.546 347.489 321.732H432.894C433.208 321.732 433.417 321.522 433.417 321.208C433.417 320.894 433.208 320.685 432.894 320.685H347.385C346.757 312.835 346.233 305.195 346.233 297.659V281.855C346.233 279.971 344.663 278.402 342.779 278.402H319.544V272.436C319.544 271.808 319.126 271.389 318.498 271.389H300.496C299.868 271.389 299.449 271.808 299.449 272.436V278.402H293.693L300.81 204.615ZM379.934 345.071V339.943H386.319V345.281C384.121 345.385 382.028 345.281 379.934 345.071ZM360.467 339.943H377.841V344.757C371.875 344.025 366.014 342.455 360.467 339.943ZM388.412 339.943H413.112C404.844 343.187 396.576 344.967 388.412 345.281V339.943ZM377.841 386.622H351.362C351.466 385.366 351.466 384.006 351.466 382.645V376.156C352.618 375.005 353.664 373.749 354.711 372.388C354.92 372.179 354.92 371.865 354.92 371.551L353.036 359.829C352.932 359.41 352.618 359.096 352.199 358.991C351.78 358.887 351.362 359.096 351.152 359.515C351.048 359.724 350.838 360.038 350.734 360.247C350.315 355.014 349.896 349.886 349.478 344.757C355.548 348.63 364.968 352.921 378.051 353.968C378.051 354.072 377.946 354.177 377.946 354.282V386.622H377.841ZM292.542 393.739H293.274V403.787H292.542V393.739ZM290.448 410.799H279.04V393.739H283.75V403.054C283.75 403.682 284.169 404.101 284.797 404.101C285.424 404.101 285.843 403.682 285.843 403.054V393.739H290.553V410.799H290.448ZM184.53 411.846H195.938V420.951L190.182 425.557L184.425 420.951V411.846H184.53ZM182.437 403.682H181.704V393.635H182.437V403.682ZM184.53 404.729V393.635H189.24V402.95C189.24 403.578 189.659 403.996 190.286 403.996C190.914 403.996 191.333 403.578 191.333 402.95V393.635H196.043V409.648H184.635V404.729H184.53ZM184.53 372.598H195.938V391.646H191.228V390.599C191.228 389.971 190.81 389.553 190.182 389.553C189.554 389.553 189.135 389.971 189.135 390.599V391.646H184.425V372.598H184.53ZM198.032 393.739H198.764V403.787H198.032V393.739ZM197.613 422.312C197.822 422.103 198.032 421.789 198.032 421.475V411.846H199.392C200.02 411.846 200.439 411.427 200.439 410.799C200.439 410.171 200.02 409.753 199.392 409.753H198.032V405.775H199.811C200.439 405.775 200.857 405.357 200.857 404.729V392.588C200.857 391.96 200.439 391.541 199.811 391.541H198.032V387.25C198.241 387.46 198.45 387.564 198.764 387.564H276.633C276.737 387.564 276.842 387.564 276.947 387.46V391.437H275.168C274.54 391.437 274.121 391.855 274.121 392.483V404.624C274.121 405.252 274.54 405.671 275.168 405.671H276.947V410.695H275.586C274.958 410.695 274.54 411.113 274.54 411.741C274.54 412.369 274.958 412.788 275.586 412.788H276.947V421.37C276.947 421.684 277.051 421.998 277.365 422.207L281.866 425.766H193.112L197.613 422.312ZM276.947 403.682H276.214V393.635H276.947V403.682ZM279.04 421.056V412.997H290.448V421.056L284.692 425.661L279.04 421.056ZM285.843 391.646V390.599C285.843 389.971 285.424 389.553 284.797 389.553C284.169 389.553 283.75 389.971 283.75 390.599V391.646H279.04V372.598H290.448V391.646H285.843ZM292.542 372.598H295.472C296.1 372.598 296.519 372.179 296.519 371.551C296.519 370.923 296.1 370.504 295.472 370.504H273.912C273.284 370.504 272.865 370.923 272.865 371.551C272.865 372.179 273.284 372.598 273.912 372.598H276.842V385.68C276.738 385.68 276.633 385.576 276.528 385.576H198.764C198.45 385.576 198.136 385.68 198.032 385.89V372.493H200.962C201.59 372.493 202.009 372.074 202.009 371.446C202.009 370.818 201.59 370.4 200.962 370.4H179.402C178.774 370.4 178.355 370.818 178.355 371.446C178.355 372.074 178.774 372.493 179.402 372.493H182.332V385.68C182.228 385.576 182.018 385.576 181.809 385.576H142.875C136.385 385.576 131.152 380.343 131.152 373.853V281.751C131.152 281.018 131.78 280.39 132.513 280.39H186.623C188.717 283.844 193.74 290.438 205.358 298.811L204.207 300.276C203.997 300.485 203.997 300.799 203.997 301.009C203.997 301.323 204.207 301.532 204.416 301.741L208.602 304.986L207.974 305.823C207.66 306.242 207.66 306.974 208.184 307.288C208.393 307.393 208.602 307.498 208.812 307.498C209.126 307.498 209.44 307.393 209.649 307.079L210.277 306.242L214.463 309.486C214.673 309.591 214.882 309.696 215.091 309.696C215.405 309.696 215.719 309.591 215.929 309.277L217.08 307.812L221.999 311.579C221.894 311.684 221.79 311.684 221.685 311.789C220.848 312.94 220.429 314.405 220.639 315.766C220.848 317.231 221.58 318.487 222.732 319.429L273.702 358.468C274.644 359.201 275.796 359.619 277.051 359.619H277.784C279.249 359.41 280.505 358.677 281.447 357.526C281.657 357.317 281.657 357.003 281.657 356.794C304.578 372.074 321.847 382.854 335.453 382.854C337.023 382.854 338.593 382.645 340.163 382.331C337.965 384.32 335.139 385.471 332.208 385.471H292.751V372.598H292.542ZM160.667 205.975V211.208H153.864V205.975H160.667ZM153.864 212.255H160.667V215.604H153.864V212.255ZM161.714 217.697C162.342 217.697 162.76 217.279 162.76 216.651V205.975H169.249V216.651C169.249 217.279 169.668 217.697 170.296 217.697H173.331C173.541 228.268 174.482 236.641 176.471 243.235H156.69C158.469 235.071 159.411 226.175 158.992 217.697H161.714ZM171.343 215.604V212.255H178.146V215.604H171.343ZM178.25 211.208H171.447V205.975H178.25V211.208ZM177.204 245.328C177.727 247.003 178.355 248.468 179.088 249.829C179.297 250.143 179.611 250.457 180.03 250.457C180.239 250.457 180.344 250.457 180.448 250.352C180.972 250.143 181.181 249.515 180.867 248.991C180.344 247.945 179.82 246.689 179.402 245.433H218.65V254.434H192.066C191.752 254.434 191.542 254.643 191.542 254.957C191.542 255.271 191.752 255.48 192.066 255.48H218.65V259.667H190.286C189.554 259.353 186.728 256.946 185.891 256.004C185.472 255.585 184.844 255.48 184.425 255.899C184.007 256.318 183.902 256.946 184.321 257.364C184.739 257.783 185.681 258.725 186.833 259.667H151.247C151.875 258.306 152.503 256.946 153.027 255.48H173.331C173.645 255.48 173.855 255.271 173.855 254.957C173.855 254.643 173.645 254.434 173.331 254.434H153.445C154.492 251.608 155.434 248.573 156.167 245.433H177.204V245.328ZM209.23 272.017H204.416L205.986 262.074H207.66L209.23 272.017ZM151.247 254.225H114.72V245.224H154.073C153.236 248.468 152.294 251.503 151.247 254.225ZM114.72 255.271H150.829C150.201 256.736 149.573 258.202 148.945 259.458H114.72V255.271ZM119.221 261.656H147.794C147.061 263.016 146.224 264.272 145.386 265.423C145.072 265.842 145.177 266.575 145.596 266.889C145.805 266.993 146.014 267.098 146.224 267.098C146.538 267.098 146.852 266.993 147.061 266.679C148.108 265.214 149.154 263.539 150.096 261.656H203.788L202.009 272.959C202.009 273.273 202.009 273.587 202.218 273.796C202.427 274.006 202.741 274.215 203.055 274.215H210.277C210.591 274.215 210.905 274.11 211.114 273.796C211.324 273.587 211.428 273.273 211.324 272.959L209.544 261.656H214.568V278.402H202.113C199.497 275.576 198.345 273.692 198.241 273.587C198.032 273.168 197.508 272.959 197.09 273.168L185.891 276.413C185.577 276.518 185.367 276.622 185.263 276.936C185.158 277.146 185.053 277.46 185.158 277.774L185.367 278.402H176.157V272.436C176.157 271.808 175.738 271.389 175.11 271.389H157.109C156.481 271.389 156.062 271.808 156.062 272.436V278.402H132.408C130.524 278.402 128.954 279.971 128.954 281.855V297.659C128.954 303.416 128.64 309.172 128.222 315.033H125.396C119.744 314.615 119.012 312.103 119.012 309.905V261.656H119.221ZM336.29 280.495V369.772C324.463 370.295 308.973 359.41 291.076 346.955C290.762 346.746 290.448 346.537 290.134 346.223C291.914 343.815 291.495 340.466 289.088 338.582L238.222 299.543C237.071 298.706 235.605 298.287 234.14 298.497C232.675 298.706 231.419 299.439 230.477 300.59C230.477 300.59 230.372 300.695 230.372 300.799L225.453 297.031L226.5 295.671C226.709 295.461 226.709 295.147 226.709 294.938C226.709 294.624 226.5 294.415 226.29 294.206L222.104 290.961L222.732 290.124C223.046 289.705 223.046 288.972 222.522 288.658C222.104 288.344 221.371 288.344 221.057 288.868L220.429 289.705L216.243 286.461C215.824 286.147 215.091 286.147 214.777 286.67L213.626 288.135C209.649 285.519 206.509 282.902 204.207 280.599H336.29V280.495ZM317.137 278.402H301.228V273.482H317.137V278.402ZM343.826 367.364C342.361 368.306 340.686 368.934 339.012 369.353C338.488 369.458 337.965 369.562 337.337 369.562V280.39H342.361C343.093 280.39 343.721 281.018 343.721 281.751V367.26C343.721 367.364 343.826 367.364 343.826 367.364ZM346.443 336.698C347.28 345.176 348.117 353.968 348.745 362.969C347.803 364.12 346.861 365.062 345.919 365.899V331.151C346.024 333.035 346.233 334.814 346.443 336.698ZM275.063 352.607C276.842 353.758 278.517 354.91 280.191 356.061C279.982 356.166 279.773 356.27 279.668 356.375C279.145 357.108 278.307 357.526 277.47 357.631C276.633 357.735 275.691 357.526 274.958 357.003L272.656 355.224C272.865 355.224 273.179 355.119 273.284 354.805L275.063 352.607ZM271.609 353.654C271.4 353.863 271.4 354.177 271.4 354.386L263.236 348.107C263.445 348.107 263.759 348.002 263.864 347.688L266.376 344.443L273.598 335.024L276.424 331.361L284.169 337.326L271.609 353.654ZM187.775 278.088L197.09 275.366C198.45 277.355 203.055 283.425 212.475 289.6L206.614 297.241C193.426 287.716 189.031 280.599 187.775 278.088ZM207.032 300.171L210.382 302.788L209.858 303.416L206.509 300.799L207.032 300.171ZM212.056 304.044L215.405 306.66L214.882 307.288L211.533 304.672L212.056 304.044ZM208.288 298.497L214.149 290.856L222.627 297.345L216.766 304.986L208.288 298.497ZM223.883 295.671L220.534 293.054L220.953 292.531L224.302 295.147L223.883 295.671ZM218.859 291.798L215.51 289.182L215.929 288.658L219.278 291.275L218.859 291.798ZM224.302 298.601L235.082 306.87L229.116 314.615L218.336 306.346L224.302 298.601ZM236.338 305.195L232.047 301.846L232.151 301.741C232.675 301.009 233.512 300.59 234.349 300.485C235.291 300.381 236.129 300.59 236.861 301.113L238.536 302.369L236.338 305.195ZM223.36 313.254C223.464 313.149 223.464 313.045 223.569 312.94L227.86 316.289L225.558 319.22L223.988 317.964C223.255 317.441 222.836 316.603 222.732 315.766C222.627 314.929 222.836 313.987 223.36 313.254ZM237.384 307.288L240.21 303.625L247.955 309.591L237.908 322.674L234.977 326.441L227.232 320.476L237.384 307.288ZM265.329 342.35L240.21 323.092L246.176 315.347L271.295 334.605L265.329 342.35ZM272.551 332.931L247.432 313.673L249.63 310.847L274.749 330.105L272.551 332.931ZM238.954 324.767L264.073 344.025L262.294 346.432C262.085 346.641 262.085 346.955 262.085 347.165L236.757 327.697L238.954 324.767ZM285.738 338.687L287.832 340.257C289.297 341.408 289.611 343.501 288.46 344.967V345.071C286.89 343.92 285.215 342.769 283.541 341.618L285.738 338.687ZM158.365 278.402V273.482H174.273V278.402H158.365ZM276.319 350.932L282.285 343.187C284.901 344.967 287.413 346.746 289.925 348.525C310.334 362.864 326.452 374.063 339.43 371.342C343.721 370.4 347.385 367.992 350.524 364.015L350.838 363.701C351.048 363.387 351.257 363.178 351.466 362.864L352.827 371.446C337.128 391.541 315.463 377.203 276.319 350.932ZM292.123 269.505C286.89 261.342 284.692 251.294 284.482 242.816C284.692 243.235 285.006 243.444 285.424 243.444C285.529 243.444 285.634 243.444 285.843 243.34C286.366 243.13 286.68 242.502 286.471 241.979C285.634 239.886 288.146 237.688 290.762 235.281C293.274 232.978 295.786 230.676 295.681 228.059C295.577 226.698 294.844 225.442 293.379 224.291L297.356 217.907L292.123 269.505ZM290.553 224.71L289.088 227.012C288.774 227.536 288.983 228.164 289.402 228.478C289.611 228.582 289.716 228.687 289.925 228.687C290.239 228.687 290.658 228.478 290.762 228.164L292.123 225.966C292.96 226.698 293.379 227.326 293.379 228.059C293.483 229.734 291.286 231.722 289.088 233.606C287.204 235.281 285.11 237.165 284.378 239.258C284.587 233.606 285.738 229.001 287.413 226.489C287.518 226.28 287.622 226.175 287.727 225.966C288.041 225.652 288.25 225.338 288.564 225.128C289.297 224.71 289.925 224.605 290.553 224.71ZM282.494 243.235C282.494 244.282 282.599 245.328 282.703 246.48C283.541 256.527 286.89 265.842 291.914 272.75L291.39 278.402H287.727C283.959 266.784 281.866 253.806 282.494 243.235ZM234.245 212.569C238.745 217.802 245.967 229.21 247.641 239.362C248.897 246.689 248.06 260.504 247.537 270.656C247.327 273.482 247.223 276.099 247.118 278.297H216.766V261.551H219.697C220.325 261.551 220.743 261.132 220.743 260.504V244.177C220.743 243.549 220.325 243.13 219.697 243.13H178.669C176.68 236.746 175.634 228.164 175.424 217.593H179.192C179.82 217.593 180.239 217.174 180.239 216.546V205.975H183.169C200.648 205.975 213.626 203.568 222.313 198.754C224.092 200.742 230.058 207.65 234.245 212.569ZM223.778 170.39C225.558 172.274 226.081 175.414 225.767 177.507V178.03C224.72 191.323 209.858 198.021 181.39 198.021H151.98C123.617 198.021 108.65 191.323 107.603 178.03V177.507C107.394 175.309 107.917 172.274 109.592 170.39C110.115 169.762 110.743 169.343 111.476 169.029H221.79C222.522 169.343 223.15 169.762 223.778 170.39ZM182.332 166.936H176.052C176.785 164.11 178.25 157.307 177.308 151.028C180.762 155.319 182.228 161.284 182.332 166.936ZM174.483 148.097C176.89 154.9 174.587 164.424 173.855 166.936H154.597C153.969 164.529 151.771 155.737 153.759 148.934C156.69 146.318 160.248 144.853 164.226 144.853C168.517 144.748 171.866 146.004 174.483 148.097ZM151.038 151.865C150.306 157.935 151.771 164.215 152.399 166.936H146.119C146.328 160.97 148.108 155.737 151.038 151.865ZM100.696 180.124C100.696 179.914 100.696 179.6 100.591 179.391C100.382 176.775 101.01 173.007 102.998 170.809C104.149 169.553 105.615 168.925 107.499 168.925H109.592C109.383 169.134 109.069 169.343 108.859 169.553C106.871 171.751 106.347 175.1 106.557 177.507V178.03C107.603 191.951 122.884 198.963 151.98 198.963H181.39C210.382 198.963 225.662 191.951 226.814 178.03V177.507C227.023 175.1 226.5 171.646 224.511 169.553C224.302 169.343 224.092 169.134 223.778 168.925H225.872C227.651 168.925 229.221 169.553 230.372 170.809C232.361 173.007 232.989 176.775 232.779 179.391C232.779 179.6 232.779 179.81 232.675 180.124C231.523 195.823 214.882 203.882 183.169 203.882H150.096C118.488 203.882 101.847 195.928 100.696 180.124ZM85.9383 272.331C84.8916 263.121 83.6357 252.55 85.7289 239.362C87.2989 229.42 94.6252 217.802 99.1257 212.569C103.312 207.65 109.278 200.742 111.057 198.754C119.639 203.568 132.722 205.975 150.201 205.975H151.875V216.651C151.875 217.279 152.294 217.697 152.922 217.697H156.899C157.318 226.175 156.376 235.071 154.597 243.235H113.778C113.15 243.235 112.732 243.654 112.732 244.282V260.609C112.732 261.237 113.15 261.656 113.778 261.656H117.232V300.381H84.159C87.2989 292.636 91.276 287.193 91.3807 287.088C91.6947 286.67 91.59 285.937 91.1714 285.623C90.7527 285.309 90.0201 285.414 89.7061 285.833C89.6014 285.937 88.5548 287.507 87.0895 289.914C87.4035 284.263 86.6709 278.611 85.9383 272.331ZM79.8679 325.29C79.1352 320.999 80.2865 310.637 83.3217 302.474H117.128V309.905C117.128 314.301 119.953 316.708 125.501 317.127H128.326C127.908 322.778 127.385 328.535 126.757 334.396H99.963C87.2989 334.291 80.7052 329.581 79.8679 325.29ZM67.727 405.985V336.384H126.547C125.082 351.142 123.512 366.422 123.617 382.54C123.617 393.739 125.501 399.286 128.326 405.88H67.727V405.985ZM125.605 382.645C125.605 366.632 127.071 351.456 128.536 336.698C128.745 334.814 128.85 333.035 129.059 331.256V373.958C129.059 377.307 130.315 380.447 132.304 382.854V410.276C132.094 409.753 131.78 409.125 131.571 408.601C127.908 400.228 125.71 395.205 125.605 382.645ZM135.548 417.916C135.443 417.707 135.339 417.393 135.234 417.184C134.711 415.718 134.397 414.148 134.397 412.474V384.738C136.699 386.622 139.735 387.669 142.875 387.669H181.809C182.018 387.669 182.123 387.564 182.332 387.564V391.646H180.553C179.925 391.646 179.506 392.065 179.506 392.693V404.833C179.506 405.461 179.925 405.88 180.553 405.88H182.332V409.857H180.972C180.344 409.857 179.925 410.276 179.925 410.904C179.925 411.532 180.344 411.95 180.972 411.95H182.332V421.579C182.332 421.893 182.437 422.207 182.751 422.417L187.251 425.975H147.794C142.351 425.871 137.641 422.626 135.548 417.916ZM327.08 425.871H287.727L292.227 422.312C292.437 422.103 292.646 421.789 292.646 421.475V412.892H294.007C294.635 412.892 295.053 412.474 295.053 411.846C295.053 411.218 294.635 410.799 294.007 410.799H292.646V405.775H294.425C295.053 405.775 295.472 405.357 295.472 404.729V392.588C295.472 391.96 295.053 391.541 294.425 391.541H292.646V387.669H332.104C335.244 387.669 338.174 386.622 340.581 384.738V412.474C340.581 414.148 340.267 415.718 339.744 417.184L339.43 417.812C337.337 422.626 332.627 425.871 327.08 425.871ZM342.675 410.171V382.75C342.989 382.331 343.303 382.017 343.512 381.598C343.512 381.494 343.512 381.494 343.617 381.389C345.605 380.552 347.489 379.505 349.373 378.04V382.645C349.373 395.205 347.071 400.228 343.407 408.601C343.093 409.125 342.884 409.648 342.675 410.171ZM455.082 394.158L463.874 405.461C463.978 405.566 463.978 405.775 463.874 405.775C463.874 405.88 463.769 405.985 463.56 405.985H346.757C349.059 400.647 350.629 396.042 351.152 388.716H444.092C448.279 388.716 452.361 390.704 455.082 394.158ZM386.319 354.7V386.622H379.934V354.072C381.086 354.177 382.237 354.177 383.493 354.177C384.54 354.177 385.586 354.177 386.633 354.072C386.424 354.282 386.319 354.491 386.319 354.7ZM409.449 347.897C378.365 357.526 358.374 348.525 348.954 342.141C348.85 341.408 348.85 340.676 348.745 340.048H355.444C364.968 345.071 375.329 347.583 386.005 347.583H386.947C387.051 347.583 387.156 347.688 387.261 347.688C387.365 347.688 387.47 347.688 387.575 347.583C397.832 347.374 408.403 344.862 418.66 339.943C447.232 326.546 470.363 298.287 481.352 264.377C478.212 278.82 472.037 293.264 463.664 305.928C454.14 320.371 436.975 339.42 409.449 347.897ZM478.317 333.245C478.422 334.5 478.108 335.652 477.27 336.489C476.433 337.431 475.282 337.85 474.13 337.85H435.301C449.326 328.535 459.164 316.708 465.653 306.974C468.897 302.16 471.723 297.031 474.235 291.798L478.317 333.245Z"
        fill="currentColor" />
    <path
        d="M338.069 243.968H344.873C345.187 243.968 345.396 243.758 345.396 243.444C345.396 243.13 345.187 242.921 344.873 242.921H338.697L341 220.628C341 220.314 340.791 220.105 340.581 220.105C340.267 220.105 340.058 220.314 340.058 220.523L337.755 243.444C337.755 243.549 337.755 243.758 337.86 243.863C337.755 243.863 337.86 243.968 338.069 243.968ZM421.485 244.805H430.172C430.486 244.805 430.696 244.596 430.696 244.282C430.696 243.968 430.486 243.758 430.172 243.758H422.009L424.206 220.628C424.206 220.314 423.997 220.105 423.683 220.105C423.369 220.105 423.16 220.314 423.16 220.628L420.857 244.282C420.857 244.386 420.857 244.596 420.962 244.7C421.171 244.7 421.381 244.805 421.485 244.805ZM178.355 253.806C178.669 253.911 179.088 253.911 179.402 253.911C180.657 253.911 182.018 253.387 182.855 252.445C183.902 251.399 184.321 250.038 184.007 248.677C183.902 248.154 183.274 247.735 182.751 247.84C182.227 247.945 181.809 248.573 181.913 249.096C182.123 249.933 181.599 250.666 181.39 250.98C180.762 251.608 179.716 251.922 178.774 251.713C178.25 251.608 177.622 251.922 177.518 252.55C177.413 253.073 177.832 253.701 178.355 253.806Z"
        fill="currentColor" />
    <path
        d="M180.343 254.539C179.82 254.539 179.297 254.957 179.297 255.585C179.297 256.213 179.715 256.632 180.343 256.632H180.553C183.274 256.632 185.786 254.539 186.309 251.922C186.414 251.399 186.1 250.771 185.472 250.666C184.949 250.561 184.321 250.875 184.216 251.503C183.902 253.283 182.123 254.643 180.343 254.539ZM146.538 271.075C146.852 271.075 147.27 271.075 147.584 270.971C148.108 270.866 148.526 270.343 148.421 269.715C148.317 269.191 147.794 268.773 147.166 268.877C146.224 269.087 145.282 268.773 144.549 268.145C144.235 267.831 143.816 267.203 144.026 266.261C144.13 265.737 143.816 265.109 143.188 265.005C142.665 264.9 142.037 265.214 141.932 265.842C141.618 267.203 142.037 268.563 143.084 269.61C143.921 270.552 145.177 271.075 146.538 271.075Z"
        fill="currentColor" />
    <path
        d="M145.386 273.901H145.596C146.224 273.901 146.642 273.378 146.642 272.854C146.642 272.226 146.119 271.808 145.596 271.808C143.816 271.912 142.037 270.447 141.723 268.773C141.618 268.249 141.095 267.831 140.467 267.935C139.944 268.04 139.525 268.563 139.63 269.191C140.153 271.808 142.665 273.901 145.386 273.901Z"
        fill="currentColor" />
    <path
        d="M138.06 276.622C138.165 276.622 138.269 276.622 138.479 276.518C139.735 276.099 140.781 275.366 141.618 274.424C142.037 274.006 141.932 273.378 141.514 272.959C141.095 272.54 140.467 272.645 140.049 273.064C139.421 273.796 138.688 274.32 137.746 274.634C137.223 274.843 136.909 275.471 137.118 275.994C137.223 276.308 137.641 276.622 138.06 276.622ZM173.331 380.447H146.014C141.514 380.447 137.746 376.784 137.746 372.179V286.356C137.746 286.042 137.537 285.833 137.223 285.833C136.909 285.833 136.699 286.042 136.699 286.356V372.179C136.699 377.307 140.886 381.494 146.014 381.494H173.331C173.645 381.494 173.854 381.284 173.854 380.971C173.854 380.657 173.645 380.447 173.331 380.447ZM269.202 380.447H205.776C205.462 380.447 205.253 380.657 205.253 380.971C205.253 381.284 205.462 381.494 205.776 381.494H269.202C269.516 381.494 269.725 381.284 269.725 380.971C269.725 380.657 269.411 380.447 269.202 380.447Z"
        fill="currentColor" />
</svg>