<svg width="38" height="24" viewBox="0 0 38 24" fill="none" xmlns="http://www.w3.org/2000/svg">
<g clip-path="url(#clip0_53_76)">
<path d="M35 0H3C1.34315 0 0 1.34315 0 3V21C0 22.6569 1.34315 24 3 24H35C36.6569 24 38 22.6569 38 21V3C38 1.34315 36.6569 0 35 0Z" fill="black" fill-opacity="0.07"/>
<path fill-rule="evenodd" clip-rule="evenodd" d="M35 1C36.1 1 37 1.9 37 3V21C37 22.1 36.1 23 35 23H3C1.9 23 1 22.1 1 21V3C1 1.9 1.9 1 3 1H35Z" fill="#3D95CE"/>
<path d="M24.675 8.35999C24.675 11.424 22.118 15.405 20.042 18.2H15.302L13.4 6.56999L17.551 6.16799L18.556 14.443C19.496 12.877 20.655 10.418 20.655 8.74099C20.655 7.82299 20.501 7.19799 20.261 6.68299L24.041 5.89999C24.478 6.63799 24.675 7.39899 24.675 8.35999Z" fill="white"/>
</g>
<defs>
<clipPath id="clip0_53_76">
<rect width="38" height="24" fill="white"/>
</clipPath>
</defs>
</svg>
